<svg xmlns="http://www.w3.org/2000/svg" width="1024" height="1024"><defs><linearGradient id="a" x1="119.9221" x2="903.0493" y1="349.5206" y2="349.5206" gradientUnits="objectBoundingBox" spreadMethod="pad"><stop offset="0.005154639" stop-color="#c1b7fe"/><stop offset="1" stop-color="#7d6ff8"/></linearGradient><linearGradient id="b" x1="726.6252" x2="637.6342" y1="290.9598" y2="484.5543" gradientUnits="objectBoundingBox" spreadMethod="pad"><stop offset="0.005154639" stop-color="#c5bafe"/><stop offset="1" stop-color="#7d6ff8"/></linearGradient><linearGradient id="c" x1="161.5339" x2="504.8766" y1="441.6569" y2="426.8895" gradientUnits="objectBoundingBox" spreadMethod="pad"><stop offset="0" stop-color="#7d6ff8"/><stop offset="0.9948" stop-color="#c5bafe"/></linearGradient><linearGradient id="d" x1="449.2667" x2="811.8089" y1="214.0526" y2="214.0526" gradientUnits="objectBoundingBox" spreadMethod="pad"><stop offset="0.005154639" stop-color="#bcacff"/><stop offset="1" stop-color="#7864ff"/></linearGradient><linearGradient id="e" x1="449.2667" x2="760.0575" y1="354.8655" y2="354.8655" gradientUnits="objectBoundingBox" spreadMethod="pad"><stop offset="0.005154639" stop-color="#bcacff"/><stop offset="1" stop-color="#7864ff"/></linearGradient><linearGradient id="f" x1="785.9332" x2="785.9332" y1="532.7838" y2="216.9811" gradientUnits="objectBoundingBox" spreadMethod="pad"><stop offset="0" stop-color="#7864ff"/><stop offset="0.9948" stop-color="#bcacff"/></linearGradient><linearGradient id="g" x1="333.8173" x2="696.3594" y1="278.4852" y2="278.4852" gradientUnits="objectBoundingBox" spreadMethod="pad"><stop offset="0.005154639" stop-color="#dde7ff"/><stop offset="1" stop-color="#999fff"/></linearGradient><linearGradient id="h" x1="333.8173" x2="644.608" y1="414.8226" y2="414.8226" gradientUnits="objectBoundingBox" spreadMethod="pad"><stop offset="0.005154639" stop-color="#dde7ff"/><stop offset="1" stop-color="#999fff"/></linearGradient><linearGradient id="i" x1="670.4838" x2="670.4838" y1="345.233" y2="597.9465" gradientUnits="objectBoundingBox" spreadMethod="pad"><stop offset="0.005154639" stop-color="#dde7ff"/><stop offset="1" stop-color="#999fff"/></linearGradient><linearGradient id="j" x1="216.3452" x2="578.8875" y1="332.7584" y2="332.7584" gradientUnits="objectBoundingBox" spreadMethod="pad"><stop offset="0.005154639" stop-color="#ffe7ff"/><stop offset="1" stop-color="#d99fff"/></linearGradient><linearGradient id="k" x1="216.3452" x2="527.136" y1="468.5261" y2="468.5261" gradientUnits="objectBoundingBox" spreadMethod="pad"><stop offset="0.005154639" stop-color="#ffe7ff"/><stop offset="1" stop-color="#d99fff"/></linearGradient><linearGradient id="l" x1="553.0117" x2="553.0117" y1="641.8984" y2="337.3098" gradientUnits="objectBoundingBox" spreadMethod="pad"><stop offset="0" stop-color="#d99fff"/><stop offset="0.9948" stop-color="#ffe7ff"/></linearGradient><linearGradient id="m" x1="119.9221" x2="903.0493" y1="663.0969" y2="663.0969" gradientUnits="objectBoundingBox" spreadMethod="pad"><stop offset="0.005154639" stop-color="#c1b7fe"/><stop offset="1" stop-color="#7d6ff8"/></linearGradient><linearGradient id="n" x1="191.8957" x2="479.9545" y1="868.4492" y2="660.4068" gradientUnits="objectBoundingBox" spreadMethod="pad"><stop offset="0.005154639" stop-color="#6052e9"/><stop offset="1" stop-color="#8071fe"/></linearGradient><linearGradient id="o" x1="511.4857" x2="903.0493" y1="779.0322" y2="779.0322" gradientUnits="objectBoundingBox" spreadMethod="pad"><stop offset="0.005154639" stop-color="#6052e9"/><stop offset="1" stop-color="#8071fe"/></linearGradient><linearGradient id="p" x1="119.9221" x2="903.0493" y1="508.3289" y2="508.3289" gradientUnits="objectBoundingBox" spreadMethod="pad"><stop offset="0.005154639" stop-color="#c1b7fe"/><stop offset="1" stop-color="#7d6ff8"/></linearGradient><linearGradient id="q" x1="191.8957" x2="479.9545" y1="673.5645" y2="465.5221" gradientUnits="objectBoundingBox" spreadMethod="pad"><stop offset="0.005154639" stop-color="#c5bafe"/><stop offset="1" stop-color="#7d6ff8"/></linearGradient><linearGradient id="r" x1="511.4857" x2="903.0493" y1="584.1475" y2="584.1475" gradientUnits="objectBoundingBox" spreadMethod="pad"><stop offset="0.005154639" stop-color="#c5bafe"/><stop offset="1" stop-color="#7d6ff8"/></linearGradient></defs><path fill="url(#a)" d="M 511.50 268.80 L 119.90 422.10 L 154.30 426.50 L 519.00 289.80 L 876.20 430.30 L 903.00 422.10 Z"/><path fill="url(#b)" d="M 880.00 430.30 L 554.10 575.50 L 511.50 559.40 L 511.50 286.00 Z"/><path fill="url(#c)" d="M 511.50 286.00 L 511.50 559.40 L 488.40 568.20 L 154.30 426.50 Z"/><path fill="url(#d)" d="M 760.10 285.70 L 811.80 262.70 L 504.60 142.40 L 449.30 164.00 Z"/><path fill="url(#e)" d="M 449.30 164.00 L 449.30 414.30 L 760.10 545.70 L 760.10 285.40 Z"/><path fill="url(#f)" d="M 760.10 285.70 L 760.10 546.80 L 811.80 513.70 L 811.80 262.70 Z"/><path fill="url(#g)" d="M 644.60 350.20 L 696.40 327.10 L 389.10 206.80 L 333.80 228.50 Z"/><path fill="url(#h)" d="M 333.80 228.50 L 333.80 479.50 L 644.60 601.20 L 644.60 350.20 Z"/><path fill="url(#i)" d="M 644.60 350.20 L 644.60 601.20 L 696.40 578.10 L 696.40 327.10 Z"/><path fill="url(#j)" d="M 527.10 404.40 L 578.90 381.40 L 271.70 261.10 L 216.30 282.70 Z"/><path fill="url(#k)" d="M 216.30 282.70 L 216.30 533.00 L 527.10 654.30 L 527.10 404.10 Z"/><path fill="url(#l)" d="M 527.10 404.40 L 527.10 655.50 L 578.90 632.40 L 578.90 381.40 Z"/><path fill="url(#m)" d="M 903.00 617.60 L 511.50 792.00 L 119.90 617.60 L 130.30 613.50 L 289.90 540.90 L 307.10 534.20 L 511.50 625.30 L 715.90 534.20 L 733.10 540.90 L 892.70 613.50 L 898.20 615.70 Z"/><path fill="url(#n)" d="M 119.90 617.60 L 119.90 766.00 L 511.50 940.50 L 511.50 792.00 Z"/><path fill="url(#o)" d="M 903.00 617.60 L 903.00 766.00 L 511.50 940.50 L 511.50 792.00 Z"/><path fill="#c2bdfc" d="M753.3 720.1 753.3 740.4 695.8 766.1 695.8 745.8ZM753.3 763.3 753.3 783.7 695.8 809.3 695.8 789Z"/><path fill="#5747db" d="M119.9 442.4 119.9 590.9 511.5 765.3 511.5 616.9ZM903 442.4 903 590.9 511.5 765.3 511.5 616.9Z"/><path fill="url(#p)" d="M 903.00 422.70 L 511.50 597.10 L 119.90 422.70 L 154.30 419.50 L 511.50 576.20 L 862.30 421.90 Z"/><path fill="url(#q)" d="M 119.90 422.70 L 119.90 571.10 L 511.50 745.60 L 511.50 597.10 Z"/><path fill="url(#r)" d="M 903.00 422.70 L 903.00 571.10 L 511.50 745.60 L 511.50 597.10 Z"/></svg>